<mxfile host="app.diagrams.net" modified="2023-02-23T07:15:04.727Z" agent="5.0 (Windows NT 10.0; Win64; x64) AppleWebKit/537.36 (KHTML, like Gecko) Chrome/109.0.0.0 Safari/537.36" etag="KbvfvGQyrQiCDUmzHaKn" version="20.8.23" type="github">
  <diagram name="Page-1" id="13e1069c-82ec-6db2-03f1-153e76fe0fe0">
    <mxGraphModel dx="2534" dy="834" grid="1" gridSize="10" guides="1" tooltips="1" connect="1" arrows="1" fold="1" page="1" pageScale="1" pageWidth="1100" pageHeight="850" background="none" math="0" shadow="0">
      <root>
        <mxCell id="0" />
        <mxCell id="1" parent="0" />
        <mxCell id="7baba1c4bc27f4b0-2" value=":Recorder" style="shape=umlLifeline;perimeter=lifelinePerimeter;whiteSpace=wrap;html=1;container=1;collapsible=0;recursiveResize=0;outlineConnect=0;rounded=1;shadow=0;comic=0;labelBackgroundColor=none;strokeWidth=1;fontFamily=Verdana;fontSize=12;align=center;" parent="1" vertex="1">
          <mxGeometry x="-30" y="90" width="100" height="580" as="geometry" />
        </mxCell>
        <mxCell id="7baba1c4bc27f4b0-10" value="" style="html=1;points=[];perimeter=orthogonalPerimeter;rounded=0;shadow=0;comic=0;labelBackgroundColor=none;strokeWidth=1;fontFamily=Verdana;fontSize=12;align=center;" parent="7baba1c4bc27f4b0-2" vertex="1">
          <mxGeometry x="45" y="100" width="10" height="230" as="geometry" />
        </mxCell>
        <mxCell id="iy7BLxSKBUo0kFP7QP4m-23" value="cb:Event" style="html=1;verticalAlign=bottom;endArrow=open;dashed=1;endSize=8;labelBackgroundColor=none;fontFamily=Verdana;fontSize=12;edgeStyle=elbowEdgeStyle;elbow=vertical;exitX=0;exitY=0.358;exitDx=0;exitDy=0;exitPerimeter=0;" parent="7baba1c4bc27f4b0-2" source="7baba1c4bc27f4b0-13" edge="1">
          <mxGeometry x="-0.4815" relative="1" as="geometry">
            <mxPoint x="-95" y="190" as="targetPoint" />
            <Array as="points" />
            <mxPoint x="270" y="190" as="sourcePoint" />
            <mxPoint as="offset" />
          </mxGeometry>
        </mxCell>
        <mxCell id="7baba1c4bc27f4b0-3" value=":RecorderClient" style="shape=umlLifeline;perimeter=lifelinePerimeter;whiteSpace=wrap;html=1;container=1;collapsible=0;recursiveResize=0;outlineConnect=0;rounded=1;shadow=0;comic=0;labelBackgroundColor=none;strokeWidth=1;fontFamily=Verdana;fontSize=12;align=center;" parent="1" vertex="1">
          <mxGeometry x="110" y="90" width="100" height="580" as="geometry" />
        </mxCell>
        <mxCell id="7baba1c4bc27f4b0-13" value="" style="html=1;points=[];perimeter=orthogonalPerimeter;rounded=0;shadow=0;comic=0;labelBackgroundColor=none;strokeWidth=1;fontFamily=Verdana;fontSize=12;align=center;" parent="7baba1c4bc27f4b0-3" vertex="1">
          <mxGeometry x="45" y="120" width="10" height="200" as="geometry" />
        </mxCell>
        <mxCell id="oGo6HksdFG2CbkmMa-SZ-24" value="" style="endArrow=block;dashed=1;endFill=0;endSize=12;html=1;rounded=0;fontSize=11;fontColor=#333333;" parent="7baba1c4bc27f4b0-3" target="7baba1c4bc27f4b0-8" edge="1">
          <mxGeometry width="160" relative="1" as="geometry">
            <mxPoint x="50" y="550" as="sourcePoint" />
            <mxPoint x="-235" y="550" as="targetPoint" />
            <Array as="points" />
          </mxGeometry>
        </mxCell>
        <mxCell id="oGo6HksdFG2CbkmMa-SZ-25" value="track_cbs.data_cb" style="edgeLabel;html=1;align=center;verticalAlign=middle;resizable=0;points=[];fontSize=11;fontColor=#333333;" parent="oGo6HksdFG2CbkmMa-SZ-24" vertex="1" connectable="0">
          <mxGeometry x="-0.0793" relative="1" as="geometry">
            <mxPoint x="-3" as="offset" />
          </mxGeometry>
        </mxCell>
        <mxCell id="7baba1c4bc27f4b0-4" value="&lt;p style=&quot;font-size: 2px;&quot;&gt;RecorderService:&lt;/p&gt;&lt;p style=&quot;font-size: 2px;&quot;&gt;BnInterface&amp;lt;IRcoiderService&amp;gt;&lt;/p&gt;" style="shape=umlLifeline;perimeter=lifelinePerimeter;whiteSpace=wrap;html=1;container=1;collapsible=0;recursiveResize=0;outlineConnect=0;rounded=1;shadow=0;comic=0;labelBackgroundColor=none;strokeWidth=1;fontFamily=Verdana;fontSize=2;align=left;" parent="1" vertex="1">
          <mxGeometry x="260" y="90" width="190" height="580" as="geometry" />
        </mxCell>
        <mxCell id="iy7BLxSKBUo0kFP7QP4m-6" value="" style="html=1;points=[];perimeter=orthogonalPerimeter;rounded=0;shadow=0;comic=0;labelBackgroundColor=none;strokeWidth=1;fontFamily=Verdana;fontSize=12;align=center;" parent="7baba1c4bc27f4b0-4" vertex="1">
          <mxGeometry x="90" y="130" width="10" height="200" as="geometry" />
        </mxCell>
        <mxCell id="iy7BLxSKBUo0kFP7QP4m-10" value="StartCamera" style="html=1;verticalAlign=bottom;endArrow=block;labelBackgroundColor=none;fontFamily=Verdana;fontSize=12;edgeStyle=elbowEdgeStyle;elbow=vertical;entryX=0;entryY=0;entryDx=0;entryDy=0;entryPerimeter=0;" parent="7baba1c4bc27f4b0-4" target="iy7BLxSKBUo0kFP7QP4m-9" edge="1">
          <mxGeometry relative="1" as="geometry">
            <mxPoint x="100" y="140" as="sourcePoint" />
            <Array as="points" />
            <mxPoint x="285" y="140" as="targetPoint" />
            <mxPoint as="offset" />
          </mxGeometry>
        </mxCell>
        <mxCell id="7baba1c4bc27f4b0-8" value=":Object" style="shape=umlLifeline;perimeter=lifelinePerimeter;whiteSpace=wrap;html=1;container=1;collapsible=0;recursiveResize=0;outlineConnect=0;rounded=1;shadow=0;comic=0;labelBackgroundColor=none;strokeWidth=1;fontFamily=Verdana;fontSize=12;align=center;" parent="1" vertex="1">
          <mxGeometry x="-180" y="90" width="100" height="580" as="geometry" />
        </mxCell>
        <mxCell id="7baba1c4bc27f4b0-9" value="" style="html=1;points=[];perimeter=orthogonalPerimeter;rounded=0;shadow=0;comic=0;labelBackgroundColor=none;strokeWidth=1;fontFamily=Verdana;fontSize=12;align=center;" parent="7baba1c4bc27f4b0-8" vertex="1">
          <mxGeometry x="45" y="100" width="10" height="440" as="geometry" />
        </mxCell>
        <mxCell id="iy7BLxSKBUo0kFP7QP4m-17" value="cb:kCameraOpened" style="html=1;verticalAlign=bottom;endArrow=open;dashed=1;endSize=8;labelBackgroundColor=none;fontFamily=Verdana;fontSize=12;edgeStyle=elbowEdgeStyle;elbow=vertical;" parent="7baba1c4bc27f4b0-8" source="iy7BLxSKBUo0kFP7QP4m-8" edge="1">
          <mxGeometry x="-0.4815" relative="1" as="geometry">
            <mxPoint x="350" y="190" as="targetPoint" />
            <Array as="points" />
            <mxPoint x="1440" y="190" as="sourcePoint" />
            <mxPoint as="offset" />
          </mxGeometry>
        </mxCell>
        <mxCell id="7baba1c4bc27f4b0-17" value="StartCamera" style="html=1;verticalAlign=bottom;endArrow=block;labelBackgroundColor=none;fontFamily=Verdana;fontSize=12;edgeStyle=elbowEdgeStyle;elbow=vertical;" parent="1" source="7baba1c4bc27f4b0-13" edge="1">
          <mxGeometry relative="1" as="geometry">
            <mxPoint x="510" y="220" as="sourcePoint" />
            <Array as="points" />
            <mxPoint x="350" y="220" as="targetPoint" />
            <mxPoint as="offset" />
          </mxGeometry>
        </mxCell>
        <mxCell id="7baba1c4bc27f4b0-11" value="StartCamera" style="html=1;verticalAlign=bottom;endArrow=block;entryX=0;entryY=0;labelBackgroundColor=none;fontFamily=Verdana;fontSize=12;edgeStyle=elbowEdgeStyle;elbow=vertical;" parent="1" source="7baba1c4bc27f4b0-9" target="7baba1c4bc27f4b0-10" edge="1">
          <mxGeometry relative="1" as="geometry">
            <mxPoint x="220" y="190" as="sourcePoint" />
            <mxPoint as="offset" />
          </mxGeometry>
        </mxCell>
        <mxCell id="7baba1c4bc27f4b0-14" value="StartCamera" style="html=1;verticalAlign=bottom;endArrow=block;entryX=0;entryY=0;labelBackgroundColor=none;fontFamily=Verdana;fontSize=12;edgeStyle=elbowEdgeStyle;elbow=vertical;" parent="1" source="7baba1c4bc27f4b0-10" target="7baba1c4bc27f4b0-13" edge="1">
          <mxGeometry relative="1" as="geometry">
            <mxPoint x="370" y="200" as="sourcePoint" />
            <mxPoint as="offset" />
          </mxGeometry>
        </mxCell>
        <mxCell id="7baba1c4bc27f4b0-40" value="&lt;br&gt;qmmf_source_context.c" style="shape=note;whiteSpace=wrap;html=1;size=14;verticalAlign=top;align=left;spacingTop=-6;rounded=0;shadow=0;comic=0;labelBackgroundColor=none;strokeWidth=1;fontFamily=Verdana;fontSize=8;" parent="1" vertex="1">
          <mxGeometry x="-210" y="30" width="160" height="35" as="geometry" />
        </mxCell>
        <mxCell id="7baba1c4bc27f4b0-41" value="&lt;br&gt;qmmf_record.c" style="shape=note;whiteSpace=wrap;html=1;size=14;verticalAlign=top;align=left;spacingTop=-6;rounded=0;shadow=0;comic=0;labelBackgroundColor=none;strokeWidth=1;fontFamily=Verdana;fontSize=12" parent="1" vertex="1">
          <mxGeometry x="-30" y="30" width="100" height="35" as="geometry" />
        </mxCell>
        <mxCell id="7baba1c4bc27f4b0-42" value="&lt;br&gt;qmmf_recorder_client" style="shape=note;whiteSpace=wrap;html=1;size=14;verticalAlign=top;align=left;spacingTop=-6;rounded=0;shadow=0;comic=0;labelBackgroundColor=none;strokeWidth=1;fontFamily=Verdana;fontSize=12" parent="1" vertex="1">
          <mxGeometry x="90" y="30" width="140" height="35" as="geometry" />
        </mxCell>
        <mxCell id="7baba1c4bc27f4b0-43" value="&lt;br&gt;qmmf_recorder_imp" style="shape=note;whiteSpace=wrap;html=1;size=14;verticalAlign=top;align=left;spacingTop=-6;rounded=0;shadow=0;comic=0;labelBackgroundColor=none;strokeWidth=1;fontFamily=Verdana;fontSize=12" parent="1" vertex="1">
          <mxGeometry x="470" y="30" width="130" height="35" as="geometry" />
        </mxCell>
        <mxCell id="iy7BLxSKBUo0kFP7QP4m-2" value="" style="edgeStyle=orthogonalEdgeStyle;rounded=0;orthogonalLoop=1;jettySize=auto;html=1;fontSize=8;" parent="1" source="iy7BLxSKBUo0kFP7QP4m-1" edge="1">
          <mxGeometry relative="1" as="geometry">
            <mxPoint x="30" y="190" as="targetPoint" />
          </mxGeometry>
        </mxCell>
        <mxCell id="iy7BLxSKBUo0kFP7QP4m-1" value="&lt;font style=&quot;font-size: 8px;&quot;&gt;gst_qmmf_context_open&lt;/font&gt;" style="rounded=1;whiteSpace=wrap;html=1;fontSize=5;" parent="1" vertex="1">
          <mxGeometry x="-470" y="180" width="160" height="20" as="geometry" />
        </mxCell>
        <mxCell id="iy7BLxSKBUo0kFP7QP4m-7" value="&lt;br&gt;qmmf_recorder_service" style="shape=note;whiteSpace=wrap;html=1;size=14;verticalAlign=top;align=left;spacingTop=-6;rounded=0;shadow=0;comic=0;labelBackgroundColor=none;strokeWidth=1;fontFamily=Verdana;fontSize=12" parent="1" vertex="1">
          <mxGeometry x="270" y="30" width="150" height="35" as="geometry" />
        </mxCell>
        <mxCell id="iy7BLxSKBUo0kFP7QP4m-8" value=":RecorderImp" style="shape=umlLifeline;perimeter=lifelinePerimeter;whiteSpace=wrap;html=1;container=1;collapsible=0;recursiveResize=0;outlineConnect=0;rounded=1;shadow=0;comic=0;labelBackgroundColor=none;strokeWidth=1;fontFamily=Verdana;fontSize=12;align=center;" parent="1" vertex="1">
          <mxGeometry x="485" y="90" width="100" height="580" as="geometry" />
        </mxCell>
        <mxCell id="iy7BLxSKBUo0kFP7QP4m-9" value="" style="html=1;points=[];perimeter=orthogonalPerimeter;rounded=0;shadow=0;comic=0;labelBackgroundColor=none;strokeWidth=1;fontFamily=Verdana;fontSize=12;align=center;" parent="iy7BLxSKBUo0kFP7QP4m-8" vertex="1">
          <mxGeometry x="45" y="140" width="10" height="200" as="geometry" />
        </mxCell>
        <mxCell id="iy7BLxSKBUo0kFP7QP4m-14" value="&lt;br&gt;qmmf_camera_source" style="shape=note;whiteSpace=wrap;html=1;size=14;verticalAlign=top;align=left;spacingTop=-6;rounded=0;shadow=0;comic=0;labelBackgroundColor=none;strokeWidth=1;fontFamily=Verdana;fontSize=12" parent="1" vertex="1">
          <mxGeometry x="620" y="30" width="140" height="35" as="geometry" />
        </mxCell>
        <mxCell id="iy7BLxSKBUo0kFP7QP4m-15" value=":CameraSource" style="shape=umlLifeline;perimeter=lifelinePerimeter;whiteSpace=wrap;html=1;container=1;collapsible=0;recursiveResize=0;outlineConnect=0;rounded=1;shadow=0;comic=0;labelBackgroundColor=none;strokeWidth=1;fontFamily=Verdana;fontSize=12;align=center;" parent="1" vertex="1">
          <mxGeometry x="635" y="90" width="100" height="580" as="geometry" />
        </mxCell>
        <mxCell id="iy7BLxSKBUo0kFP7QP4m-16" value="" style="html=1;points=[];perimeter=orthogonalPerimeter;rounded=0;shadow=0;comic=0;labelBackgroundColor=none;strokeWidth=1;fontFamily=Verdana;fontSize=12;align=center;" parent="iy7BLxSKBUo0kFP7QP4m-15" vertex="1">
          <mxGeometry x="45" y="150" width="10" height="200" as="geometry" />
        </mxCell>
        <mxCell id="iy7BLxSKBUo0kFP7QP4m-18" value="OpenCamera" style="html=1;verticalAlign=bottom;endArrow=block;labelBackgroundColor=none;fontFamily=Verdana;fontSize=12;edgeStyle=elbowEdgeStyle;elbow=vertical;" parent="iy7BLxSKBUo0kFP7QP4m-15" edge="1">
          <mxGeometry relative="1" as="geometry">
            <mxPoint x="-95" y="150" as="sourcePoint" />
            <Array as="points" />
            <mxPoint x="45" y="150" as="targetPoint" />
            <mxPoint as="offset" />
          </mxGeometry>
        </mxCell>
        <mxCell id="iy7BLxSKBUo0kFP7QP4m-19" value="&lt;br&gt;qmmf_camera_context" style="shape=note;whiteSpace=wrap;html=1;size=14;verticalAlign=top;align=left;spacingTop=-6;rounded=0;shadow=0;comic=0;labelBackgroundColor=none;strokeWidth=1;fontFamily=Verdana;fontSize=12" parent="1" vertex="1">
          <mxGeometry x="770" y="30" width="150" height="35" as="geometry" />
        </mxCell>
        <mxCell id="iy7BLxSKBUo0kFP7QP4m-20" value=":CameraPort" style="shape=umlLifeline;perimeter=lifelinePerimeter;whiteSpace=wrap;html=1;container=1;collapsible=0;recursiveResize=0;outlineConnect=0;rounded=1;shadow=0;comic=0;labelBackgroundColor=none;strokeWidth=1;fontFamily=Verdana;fontSize=12;align=center;" parent="1" vertex="1">
          <mxGeometry x="785" y="90" width="100" height="580" as="geometry" />
        </mxCell>
        <mxCell id="iy7BLxSKBUo0kFP7QP4m-21" value="" style="html=1;points=[];perimeter=orthogonalPerimeter;rounded=0;shadow=0;comic=0;labelBackgroundColor=none;strokeWidth=1;fontFamily=Verdana;fontSize=12;align=center;" parent="iy7BLxSKBUo0kFP7QP4m-20" vertex="1">
          <mxGeometry x="45" y="160" width="10" height="200" as="geometry" />
        </mxCell>
        <mxCell id="iy7BLxSKBUo0kFP7QP4m-30" value="OpenCamera" style="html=1;verticalAlign=bottom;endArrow=block;labelBackgroundColor=none;fontFamily=Verdana;fontSize=12;edgeStyle=elbowEdgeStyle;elbow=vertical;" parent="iy7BLxSKBUo0kFP7QP4m-20" target="iy7BLxSKBUo0kFP7QP4m-28" edge="1">
          <mxGeometry relative="1" as="geometry">
            <mxPoint x="55" y="170" as="sourcePoint" />
            <Array as="points" />
            <mxPoint x="195" y="170" as="targetPoint" />
            <mxPoint as="offset" />
          </mxGeometry>
        </mxCell>
        <mxCell id="oGo6HksdFG2CbkmMa-SZ-15" value="" style="html=1;points=[];perimeter=orthogonalPerimeter;outlineConnect=0;targetShapes=umlLifeline;portConstraint=eastwest;newEdgeStyle={&quot;edgeStyle&quot;:&quot;elbowEdgeStyle&quot;,&quot;elbow&quot;:&quot;vertical&quot;,&quot;curved&quot;:0,&quot;rounded&quot;:0};labelBackgroundColor=default;fontSize=11;fontColor=#333333;" parent="iy7BLxSKBUo0kFP7QP4m-20" vertex="1">
          <mxGeometry x="45" y="440" width="10" height="40" as="geometry" />
        </mxCell>
        <mxCell id="oGo6HksdFG2CbkmMa-SZ-16" value="NotifyBuffer" style="html=1;align=left;spacingLeft=2;endArrow=block;rounded=0;edgeStyle=orthogonalEdgeStyle;curved=0;rounded=0;fontSize=11;fontColor=#333333;" parent="iy7BLxSKBUo0kFP7QP4m-20" source="oGo6HksdFG2CbkmMa-SZ-15" edge="1">
          <mxGeometry relative="1" as="geometry">
            <mxPoint x="62" y="470" as="sourcePoint" />
            <Array as="points">
              <mxPoint x="80" y="460" />
              <mxPoint x="80" y="500" />
            </Array>
            <mxPoint x="55" y="500" as="targetPoint" />
          </mxGeometry>
        </mxCell>
        <mxCell id="iy7BLxSKBUo0kFP7QP4m-22" value="OpenCamera" style="html=1;verticalAlign=bottom;endArrow=block;labelBackgroundColor=none;fontFamily=Verdana;fontSize=12;edgeStyle=elbowEdgeStyle;elbow=vertical;" parent="1" edge="1">
          <mxGeometry relative="1" as="geometry">
            <mxPoint x="690" y="250" as="sourcePoint" />
            <Array as="points" />
            <mxPoint x="830" y="250" as="targetPoint" />
            <mxPoint as="offset" />
          </mxGeometry>
        </mxCell>
        <mxCell id="iy7BLxSKBUo0kFP7QP4m-27" value="&lt;br&gt;qmmf_camera3_device_client" style="shape=note;whiteSpace=wrap;html=1;size=14;verticalAlign=top;align=left;spacingTop=-6;rounded=0;shadow=0;comic=0;labelBackgroundColor=none;strokeWidth=1;fontFamily=Verdana;fontSize=12" parent="1" vertex="1">
          <mxGeometry x="930" y="30" width="180" height="35" as="geometry" />
        </mxCell>
        <mxCell id="iy7BLxSKBUo0kFP7QP4m-28" value=":CameraDeviceClient" style="shape=umlLifeline;perimeter=lifelinePerimeter;whiteSpace=wrap;html=1;container=1;collapsible=0;recursiveResize=0;outlineConnect=0;rounded=1;shadow=0;comic=0;labelBackgroundColor=none;strokeWidth=1;fontFamily=Verdana;fontSize=12;align=center;" parent="1" vertex="1">
          <mxGeometry x="945" y="90" width="135" height="580" as="geometry" />
        </mxCell>
        <mxCell id="iy7BLxSKBUo0kFP7QP4m-29" value="" style="html=1;points=[];perimeter=orthogonalPerimeter;rounded=0;shadow=0;comic=0;labelBackgroundColor=none;strokeWidth=1;fontFamily=Verdana;fontSize=12;align=center;" parent="iy7BLxSKBUo0kFP7QP4m-28" vertex="1">
          <mxGeometry x="62.5" y="170" width="10" height="250" as="geometry" />
        </mxCell>
        <mxCell id="oGo6HksdFG2CbkmMa-SZ-6" value="" style="html=1;points=[];perimeter=orthogonalPerimeter;outlineConnect=0;targetShapes=umlLifeline;portConstraint=eastwest;newEdgeStyle={&quot;edgeStyle&quot;:&quot;elbowEdgeStyle&quot;,&quot;elbow&quot;:&quot;vertical&quot;,&quot;curved&quot;:0,&quot;rounded&quot;:0};labelBackgroundColor=default;fontSize=11;fontColor=#333333;" parent="iy7BLxSKBUo0kFP7QP4m-28" vertex="1">
          <mxGeometry x="68" y="340" width="10" height="40" as="geometry" />
        </mxCell>
        <mxCell id="oGo6HksdFG2CbkmMa-SZ-7" value="HandleCaptureResult" style="html=1;align=left;spacingLeft=2;endArrow=block;rounded=0;edgeStyle=orthogonalEdgeStyle;curved=0;rounded=0;fontSize=11;fontColor=#333333;" parent="iy7BLxSKBUo0kFP7QP4m-28" target="oGo6HksdFG2CbkmMa-SZ-6" edge="1">
          <mxGeometry relative="1" as="geometry">
            <mxPoint x="73" y="320" as="sourcePoint" />
            <Array as="points">
              <mxPoint x="103" y="350" />
            </Array>
          </mxGeometry>
        </mxCell>
        <mxCell id="oGo6HksdFG2CbkmMa-SZ-9" value="" style="html=1;points=[];perimeter=orthogonalPerimeter;outlineConnect=0;targetShapes=umlLifeline;portConstraint=eastwest;newEdgeStyle={&quot;edgeStyle&quot;:&quot;elbowEdgeStyle&quot;,&quot;elbow&quot;:&quot;vertical&quot;,&quot;curved&quot;:0,&quot;rounded&quot;:0};labelBackgroundColor=default;fontSize=11;fontColor=#333333;" parent="iy7BLxSKBUo0kFP7QP4m-28" vertex="1">
          <mxGeometry x="68" y="390" width="10" height="40" as="geometry" />
        </mxCell>
        <mxCell id="oGo6HksdFG2CbkmMa-SZ-10" value="ReturnOutPutBuffers" style="html=1;align=left;spacingLeft=2;endArrow=block;rounded=0;edgeStyle=orthogonalEdgeStyle;curved=0;rounded=0;fontSize=11;fontColor=#333333;" parent="iy7BLxSKBUo0kFP7QP4m-28" source="oGo6HksdFG2CbkmMa-SZ-6" target="oGo6HksdFG2CbkmMa-SZ-9" edge="1">
          <mxGeometry relative="1" as="geometry">
            <mxPoint x="85" y="370" as="sourcePoint" />
            <Array as="points">
              <mxPoint x="103" y="360" />
              <mxPoint x="103" y="400" />
            </Array>
          </mxGeometry>
        </mxCell>
        <mxCell id="oGo6HksdFG2CbkmMa-SZ-13" value="" style="endArrow=block;dashed=1;endFill=0;endSize=12;html=1;rounded=0;fontSize=11;fontColor=#333333;" parent="iy7BLxSKBUo0kFP7QP4m-28" edge="1">
          <mxGeometry width="160" relative="1" as="geometry">
            <mxPoint x="262" y="450" as="sourcePoint" />
            <mxPoint x="-105" y="450" as="targetPoint" />
          </mxGeometry>
        </mxCell>
        <mxCell id="oGo6HksdFG2CbkmMa-SZ-14" value="callbacks_" style="edgeLabel;html=1;align=center;verticalAlign=middle;resizable=0;points=[];fontSize=11;fontColor=#333333;" parent="oGo6HksdFG2CbkmMa-SZ-13" vertex="1" connectable="0">
          <mxGeometry x="-0.0793" relative="1" as="geometry">
            <mxPoint x="-93" as="offset" />
          </mxGeometry>
        </mxCell>
        <mxCell id="iy7BLxSKBUo0kFP7QP4m-31" value="&lt;br&gt;camera_hal3" style="shape=note;whiteSpace=wrap;html=1;size=14;verticalAlign=top;align=center;spacingTop=-6;rounded=0;shadow=0;comic=0;labelBackgroundColor=none;strokeWidth=1;fontFamily=Verdana;fontSize=12" parent="1" vertex="1">
          <mxGeometry x="1350" y="30" width="180" height="35" as="geometry" />
        </mxCell>
        <mxCell id="iy7BLxSKBUo0kFP7QP4m-32" value=":Camx" style="shape=umlLifeline;perimeter=lifelinePerimeter;whiteSpace=wrap;html=1;container=1;collapsible=0;recursiveResize=0;outlineConnect=0;rounded=1;shadow=0;comic=0;labelBackgroundColor=none;strokeWidth=1;fontFamily=Verdana;fontSize=12;align=center;" parent="1" vertex="1">
          <mxGeometry x="1370" y="90" width="135" height="580" as="geometry" />
        </mxCell>
        <mxCell id="iy7BLxSKBUo0kFP7QP4m-33" value="" style="html=1;points=[];perimeter=orthogonalPerimeter;rounded=0;shadow=0;comic=0;labelBackgroundColor=none;strokeWidth=1;fontFamily=Verdana;fontSize=12;align=center;" parent="iy7BLxSKBUo0kFP7QP4m-32" vertex="1">
          <mxGeometry x="62.5" y="170" width="10" height="200" as="geometry" />
        </mxCell>
        <mxCell id="iy7BLxSKBUo0kFP7QP4m-38" value="initialize(camera3_callback_ops)" style="html=1;verticalAlign=bottom;endArrow=block;labelBackgroundColor=none;fontFamily=Verdana;fontSize=12;edgeStyle=elbowEdgeStyle;elbow=vertical;" parent="1" target="iy7BLxSKBUo0kFP7QP4m-32" edge="1">
          <mxGeometry x="-0.5674" relative="1" as="geometry">
            <mxPoint x="1020" y="290" as="sourcePoint" />
            <Array as="points" />
            <mxPoint x="1238" y="290" as="targetPoint" />
            <mxPoint as="offset" />
          </mxGeometry>
        </mxCell>
        <mxCell id="oGo6HksdFG2CbkmMa-SZ-1" value="" style="endArrow=block;dashed=1;endFill=0;endSize=12;html=1;rounded=0;fontSize=11;fontColor=#333333;" parent="1" source="iy7BLxSKBUo0kFP7QP4m-32" edge="1">
          <mxGeometry width="160" relative="1" as="geometry">
            <mxPoint x="1040" y="340" as="sourcePoint" />
            <mxPoint x="1020" y="380" as="targetPoint" />
          </mxGeometry>
        </mxCell>
        <mxCell id="oGo6HksdFG2CbkmMa-SZ-2" value="processCaptureResult" style="edgeLabel;html=1;align=center;verticalAlign=middle;resizable=0;points=[];fontSize=11;fontColor=#333333;" parent="oGo6HksdFG2CbkmMa-SZ-1" vertex="1" connectable="0">
          <mxGeometry x="-0.0793" relative="1" as="geometry">
            <mxPoint x="-132" as="offset" />
          </mxGeometry>
        </mxCell>
        <mxCell id="oGo6HksdFG2CbkmMa-SZ-3" value="&lt;br style=&quot;border-color: var(--border-color); text-align: left;&quot;&gt;qmmf_camera3_stream" style="shape=note;whiteSpace=wrap;html=1;size=14;verticalAlign=top;align=center;spacingTop=-6;rounded=0;shadow=0;comic=0;labelBackgroundColor=none;strokeWidth=1;fontFamily=Verdana;fontSize=12" parent="1" vertex="1">
          <mxGeometry x="1130" y="30" width="180" height="35" as="geometry" />
        </mxCell>
        <mxCell id="oGo6HksdFG2CbkmMa-SZ-4" value=":Camera3Stream" style="shape=umlLifeline;perimeter=lifelinePerimeter;whiteSpace=wrap;html=1;container=1;collapsible=0;recursiveResize=0;outlineConnect=0;rounded=1;shadow=0;comic=0;labelBackgroundColor=none;strokeWidth=1;fontFamily=Verdana;fontSize=12;align=center;" parent="1" vertex="1">
          <mxGeometry x="1145" y="90" width="135" height="580" as="geometry" />
        </mxCell>
        <mxCell id="oGo6HksdFG2CbkmMa-SZ-5" value="" style="html=1;points=[];perimeter=orthogonalPerimeter;rounded=0;shadow=0;comic=0;labelBackgroundColor=none;strokeWidth=1;fontFamily=Verdana;fontSize=12;align=center;" parent="oGo6HksdFG2CbkmMa-SZ-4" vertex="1">
          <mxGeometry x="62.5" y="170" width="10" height="320" as="geometry" />
        </mxCell>
        <mxCell id="oGo6HksdFG2CbkmMa-SZ-11" value="" style="endArrow=block;dashed=1;endFill=0;endSize=12;html=1;rounded=0;fontSize=11;fontColor=#333333;" parent="oGo6HksdFG2CbkmMa-SZ-4" source="oGo6HksdFG2CbkmMa-SZ-9" edge="1">
          <mxGeometry width="160" relative="1" as="geometry">
            <mxPoint x="-15" y="420" as="sourcePoint" />
            <mxPoint x="65" y="420" as="targetPoint" />
          </mxGeometry>
        </mxCell>
        <mxCell id="oGo6HksdFG2CbkmMa-SZ-12" value="ReturnBufferToClient" style="edgeLabel;html=1;align=center;verticalAlign=middle;resizable=0;points=[];fontSize=11;fontColor=#333333;" parent="oGo6HksdFG2CbkmMa-SZ-11" vertex="1" connectable="0">
          <mxGeometry x="-0.0793" relative="1" as="geometry">
            <mxPoint x="-9" as="offset" />
          </mxGeometry>
        </mxCell>
        <mxCell id="oGo6HksdFG2CbkmMa-SZ-17" value="" style="endArrow=block;dashed=1;endFill=0;endSize=12;html=1;rounded=0;fontSize=11;fontColor=#333333;" parent="1" edge="1">
          <mxGeometry width="160" relative="1" as="geometry">
            <mxPoint x="835.12" y="600" as="sourcePoint" />
            <mxPoint x="689.995" y="600" as="targetPoint" />
          </mxGeometry>
        </mxCell>
        <mxCell id="oGo6HksdFG2CbkmMa-SZ-18" value="OnFrameAvailable" style="edgeLabel;html=1;align=center;verticalAlign=middle;resizable=0;points=[];fontSize=11;fontColor=#333333;" parent="oGo6HksdFG2CbkmMa-SZ-17" vertex="1" connectable="0">
          <mxGeometry x="-0.0793" relative="1" as="geometry">
            <mxPoint x="-3" as="offset" />
          </mxGeometry>
        </mxCell>
        <mxCell id="oGo6HksdFG2CbkmMa-SZ-20" value="" style="endArrow=block;dashed=1;endFill=0;endSize=12;html=1;rounded=0;fontSize=11;fontColor=#333333;" parent="1" edge="1">
          <mxGeometry width="160" relative="1" as="geometry">
            <mxPoint x="685.13" y="610" as="sourcePoint" />
            <mxPoint x="540.005" y="610" as="targetPoint" />
          </mxGeometry>
        </mxCell>
        <mxCell id="oGo6HksdFG2CbkmMa-SZ-21" value="VideoTrackBufferCb" style="edgeLabel;html=1;align=center;verticalAlign=middle;resizable=0;points=[];fontSize=11;fontColor=#333333;" parent="oGo6HksdFG2CbkmMa-SZ-20" vertex="1" connectable="0">
          <mxGeometry x="-0.0793" relative="1" as="geometry">
            <mxPoint x="-3" as="offset" />
          </mxGeometry>
        </mxCell>
        <mxCell id="oGo6HksdFG2CbkmMa-SZ-22" value="" style="endArrow=block;dashed=1;endFill=0;endSize=12;html=1;rounded=0;fontSize=11;fontColor=#333333;" parent="1" source="iy7BLxSKBUo0kFP7QP4m-8" target="7baba1c4bc27f4b0-3" edge="1">
          <mxGeometry width="160" relative="1" as="geometry">
            <mxPoint x="505.12" y="620" as="sourcePoint" />
            <mxPoint x="359.995" y="620" as="targetPoint" />
            <Array as="points">
              <mxPoint x="470" y="620" />
            </Array>
          </mxGeometry>
        </mxCell>
        <mxCell id="oGo6HksdFG2CbkmMa-SZ-23" value="VideoTrackBufferCb" style="edgeLabel;html=1;align=center;verticalAlign=middle;resizable=0;points=[];fontSize=11;fontColor=#333333;" parent="oGo6HksdFG2CbkmMa-SZ-22" vertex="1" connectable="0">
          <mxGeometry x="-0.0793" relative="1" as="geometry">
            <mxPoint x="-3" as="offset" />
          </mxGeometry>
        </mxCell>
        <mxCell id="oGo6HksdFG2CbkmMa-SZ-26" value="" style="endArrow=block;dashed=1;endFill=0;endSize=12;html=1;rounded=0;fontSize=11;fontColor=#333333;" parent="1" source="7baba1c4bc27f4b0-8" target="oGo6HksdFG2CbkmMa-SZ-4" edge="1">
          <mxGeometry width="160" relative="1" as="geometry">
            <mxPoint x="190" y="730" as="sourcePoint" />
            <mxPoint x="-100" y="730" as="targetPoint" />
            <Array as="points">
              <mxPoint x="680" y="660" />
            </Array>
          </mxGeometry>
        </mxCell>
        <mxCell id="oGo6HksdFG2CbkmMa-SZ-27" value="return buffer to product" style="edgeLabel;html=1;align=center;verticalAlign=middle;resizable=0;points=[];fontSize=11;fontColor=#333333;" parent="oGo6HksdFG2CbkmMa-SZ-26" vertex="1" connectable="0">
          <mxGeometry x="-0.0793" relative="1" as="geometry">
            <mxPoint x="-3" as="offset" />
          </mxGeometry>
        </mxCell>
      </root>
    </mxGraphModel>
  </diagram>
</mxfile>
